<svg width="45" height="45" viewBox="0 0 45 45" fill="none" xmlns="http://www.w3.org/2000/svg">
<rect width="45" height="45" rx="22.5" fill="white"/>
<path d="M28.52 22.1468L19.522 16.6478C19.3704 16.5551 19.1969 16.5045 19.0193 16.5012C18.8417 16.4978 18.6663 16.5418 18.5114 16.6287C18.3564 16.7156 18.2274 16.8422 18.1376 16.9955C18.0478 17.1488 18.0005 17.3232 18.0005 17.5009V28.4999C18.0006 28.6775 18.0481 28.8518 18.1379 29.005C18.2277 29.1582 18.3567 29.2848 18.5116 29.3716C18.6665 29.4585 18.8418 29.5025 19.0193 29.4992C19.1969 29.4959 19.3704 29.4454 19.522 29.3529L28.52 23.8539C28.6662 23.7645 28.787 23.6391 28.8707 23.4896C28.9545 23.3402 28.9985 23.1717 28.9985 23.0004C28.9985 22.829 28.9545 22.6606 28.8707 22.5111C28.787 22.3617 28.6662 22.2362 28.52 22.1468Z" fill="#222222"/>
</svg>
